<svg width="25" height="25" viewBox="0 0 25 25" fill="none" xmlns="http://www.w3.org/2000/svg">
<path d="M12.5 9.11461C10.6303 9.11461 9.11459 10.6303 9.11459 12.5C9.11459 14.3697 10.6303 15.8854 12.5 15.8854C14.3697 15.8854 15.8854 14.3697 15.8854 12.5C15.8854 10.6303 14.3697 9.11461 12.5 9.11461Z" fill="#1A1A1A"/>
<path fill-rule="evenodd" clip-rule="evenodd" d="M7.05161 3.20989C10.6434 2.80845 14.3566 2.80845 17.9484 3.20989C19.9259 3.4309 21.5209 4.98901 21.753 6.97344C22.1825 10.6453 22.1825 14.3547 21.753 18.0266C21.5209 20.011 19.9259 21.5691 17.9484 21.7902C14.3566 22.1916 10.6434 22.1916 7.05161 21.7902C5.07411 21.5691 3.47912 20.011 3.24702 18.0266C2.81756 14.3547 2.81756 10.6453 3.24702 6.97344C3.47912 4.98901 5.07411 3.4309 7.05161 3.20989ZM17.7083 6.25003C17.133 6.25003 16.6667 6.7164 16.6667 7.29169C16.6667 7.86699 17.133 8.33336 17.7083 8.33336C18.2836 8.33336 18.75 7.86699 18.75 7.29169C18.75 6.7164 18.2836 6.25003 17.7083 6.25003ZM7.55209 12.5C7.55209 9.76737 9.76735 7.55211 12.5 7.55211C15.2327 7.55211 17.4479 9.76737 17.4479 12.5C17.4479 15.2327 15.2327 17.4479 12.5 17.4479C9.76735 17.4479 7.55209 15.2327 7.55209 12.5Z" fill="#1A1A1A"/>
</svg>
