<svg width="29" height="25" viewBox="0 0 29 25" fill="none" xmlns="http://www.w3.org/2000/svg">
<path fill-rule="evenodd" clip-rule="evenodd" d="M24.1291 23.3607L24.1301 23.3582L24.1551 23.2958L28.4554 1.61461V1.54419C28.4554 1.00399 28.2558 0.532392 27.8215 0.249516C27.4413 0.00191344 27.0043 -0.0157201 26.6978 0.00754073C26.3737 0.0321413 26.0681 0.113043 25.8565 0.180385C25.7477 0.215031 25.6565 0.248413 25.5914 0.273662C25.5587 0.286333 25.5322 0.297087 25.5129 0.305098L25.494 0.313067L1.51726 9.71879L1.51066 9.72115C1.49771 9.72587 1.48058 9.73225 1.4599 9.7403C1.41866 9.75636 1.36254 9.77932 1.2966 9.80921C1.16713 9.86788 0.988258 9.95843 0.80685 10.0827C0.498744 10.2937 -0.087938 10.7932 0.0111279 11.5851C0.0931841 12.241 0.545339 12.6576 0.850169 12.8733C1.01358 12.9889 1.1699 13.0723 1.28438 13.1268C1.34238 13.1544 1.39165 13.1755 1.42835 13.1905C1.44674 13.198 1.46212 13.204 1.47403 13.2085L1.48926 13.2142L1.499 13.2178L5.69389 14.63C5.67973 14.8932 5.70583 15.1616 5.77563 15.4263L7.87689 23.3973C8.12604 24.3424 8.98105 25.0007 9.95844 25C10.8345 24.9994 11.6115 24.4694 11.9416 23.6786L15.2222 20.1709L20.8565 24.4905L20.9366 24.5255C21.4485 24.7488 21.9268 24.8196 22.3641 24.7599C22.8007 24.7002 23.1477 24.5171 23.4083 24.3086C23.6648 24.1034 23.8406 23.8718 23.9512 23.6974C24.0073 23.6088 24.0492 23.531 24.0782 23.4724C24.0928 23.4429 24.1043 23.418 24.1129 23.3986L24.1238 23.3737L24.1276 23.3644L24.1291 23.3607ZM7.85555 14.878C7.80779 14.6968 7.88277 14.5056 8.04092 14.4052L22.2694 5.36947C22.2694 5.36947 23.1063 4.8614 23.0764 5.36947C23.0764 5.36947 23.2257 5.45919 22.7773 5.87754C22.3519 6.27487 12.6363 15.655 11.6532 16.6041C11.5964 16.6589 11.5626 16.7218 11.5426 16.7981L9.95681 22.8489L7.85555 14.878Z" fill="#1A1A1A"/>
</svg>
