<svg width="261" height="60" viewBox="0 0 261 60" fill="none" xmlns="http://www.w3.org/2000/svg">
<rect width="260" height="60" fill="#050505"/>
<path d="M51.8681 9.36843H57.9979L58.0436 19.2211C59.1872 19.1754 59.7819 18.5369 59.8276 17.3053L59.9649 12.7439C60.0106 11.0561 60.3308 9.9158 60.9713 9.32281H66.5979C66.0489 9.87018 65.7745 11.0561 65.7745 12.8351L65.8202 16.8491C65.8202 19.2667 64.4479 20.6351 61.7032 21C64.4479 21.3193 65.8202 22.7333 65.8202 25.1965L65.683 28.9825C65.683 30.7614 65.9574 31.993 66.5064 32.7684H60.8798C60.2393 32.1754 59.8734 31.0351 59.8734 29.3474V24.786C59.8734 24.193 59.6904 23.7369 59.3245 23.3719C58.9585 23.007 58.5011 22.8246 57.9521 22.8246L57.9064 32.7228H51.8681V9.36843Z" fill="#FF1557"/>
<path d="M78.3085 9.36841L81.7851 32.7228H75.5638L75.2436 28.5263H73.0479L72.6819 32.7228H66.3691L69.4798 9.36841H78.3085ZM75.0606 24.421C74.7404 21.7754 74.4202 18.4912 74.1457 14.614C73.5053 19.0842 73.1394 22.3684 72.9564 24.421H75.0606Z" fill="#FF1557"/>
<path d="M97.7042 32.7684H91.5745V14.0667H89.7904V27.2947C89.7904 29.0281 89.5617 30.3052 89.1042 31.0351C88.6468 31.8105 87.9606 32.2667 87.0457 32.4491C86.1308 32.6316 84.667 32.7228 82.6542 32.7228H81.6936V28.7088C82.4255 28.7088 82.9287 28.6175 83.2489 28.4351C83.5234 28.2526 83.6606 27.614 83.6606 26.5649V9.36841H97.6585V32.7684H97.7042Z" fill="#FF1557"/>
<path d="M114.31 27.2947C114.31 29.0281 114.081 30.3052 113.623 31.0351C113.166 31.8105 112.48 32.2667 111.565 32.4491C110.65 32.6316 109.186 32.7228 107.173 32.7228H100.129V9.36841H106.213V17.3965H107.173C109.049 17.3965 110.467 17.4877 111.428 17.7158C112.388 17.9438 113.12 18.4456 113.578 19.1754C114.035 19.9509 114.31 21.1368 114.31 22.7333V27.2947ZM108.226 26.5649V23.1895C108.226 22.186 108.134 21.593 107.951 21.4105C107.768 21.1824 107.173 21.0912 106.259 21.0456V28.7088C107.036 28.7088 107.539 28.6175 107.814 28.4351C108.088 28.2526 108.226 27.614 108.226 26.5649Z" fill="#FF1557"/>
<path d="M135.306 9.36841V32.7228H130V16.9403L127.896 32.7228H124.053L121.812 17.3052V32.7228H116.505V9.36841H124.373C124.602 10.7824 124.831 12.4245 125.105 14.3403L125.974 20.2702L127.347 9.36841H135.306Z" fill="#C6FF58"/>
<path d="M148.252 9.36841L151.729 32.7228H145.553L145.233 28.5263H143.037L142.671 32.7228H136.358L139.469 9.36841H148.252ZM145.05 24.421C144.73 21.7754 144.41 18.4912 144.135 14.614C143.495 19.0842 143.129 22.3684 142.946 24.421H145.05Z" fill="#C6FF58"/>
<path d="M152.781 9.36841H158.911C160.557 9.36841 161.838 9.50525 162.753 9.77893C163.668 10.0526 164.308 10.4175 164.766 10.9193C165.223 11.421 165.498 12.014 165.681 12.6982C165.818 13.3824 165.91 14.4772 165.91 15.9368V17.9895C165.91 19.4947 165.772 20.5895 165.452 21.2737C165.132 21.9579 164.583 22.4596 163.76 22.8245C162.936 23.1895 161.838 23.3719 160.512 23.3719H158.865V32.7684H152.781V9.36841ZM158.911 13.3824V19.3123C159.094 19.3123 159.231 19.3123 159.368 19.3123C159.917 19.3123 160.329 19.1754 160.512 18.9017C160.74 18.6281 160.832 18.0351 160.832 17.1684V15.2982C160.832 14.4772 160.695 13.9754 160.466 13.7474C160.191 13.5193 159.688 13.3824 158.911 13.3824Z" fill="#C6FF58"/>
<path d="M167.694 9.36843H173.823L173.869 19.2211C175.013 19.1754 175.607 18.5368 175.653 17.3053L175.79 12.7439C175.836 11.0561 176.156 9.9158 176.797 9.32281H182.423C181.874 9.87018 181.6 11.0561 181.6 12.8351L181.646 16.8491C181.646 19.2667 180.273 20.6351 177.529 21C180.273 21.3193 181.646 22.7333 181.646 25.1965L181.6 28.9368C181.6 30.7158 181.874 31.9474 182.423 32.7228H176.797C176.156 32.1298 175.79 30.9895 175.79 29.3018V24.7404C175.79 24.1474 175.607 23.6912 175.241 23.3263C174.876 22.9614 174.418 22.779 173.869 22.779L173.823 32.6772H167.694V9.36843Z" fill="#C6FF58"/>
<path d="M183.567 9.36841H193.722V14.0667H189.651V18.4912H193.448V22.9158H189.651V28.0702H194.134V32.7684H183.567V9.36841Z" fill="#C6FF58"/>
<path d="M208.178 9.36841V14.0667H204.564V32.7684H198.48V14.0667H194.866V9.36841H208.178Z" fill="#C6FF58"/>
<path d="M30.5781 40.012C29.9154 40.012 29.5094 40.0167 29.3601 40.026C29.3321 40.0353 29.2994 40.054 29.2621 40.082C29.2341 40.1007 29.2154 40.124 29.2061 40.152C29.1967 40.2173 29.1921 40.782 29.1921 41.846C29.1921 44.506 29.2014 46.6573 29.2201 48.3V48.804C29.2201 48.9907 29.2807 49.084 29.4021 49.084L31.6701 49.112C32.1927 49.112 32.6267 48.9813 32.9721 48.72C33.3174 48.4493 33.5647 48.1227 33.7141 47.74C33.8727 47.3573 33.9521 46.984 33.9521 46.62V46.074C33.9521 45.7473 33.9381 45.43 33.9101 45.122C33.8914 44.7207 33.6394 44.2633 33.1541 43.75C32.7434 43.3393 32.0854 43.134 31.1801 43.134C31.0121 43.134 30.8907 43.1387 30.8161 43.148C30.7507 43.148 30.7087 43.148 30.6901 43.148C30.5594 43.148 30.4941 43.092 30.4941 42.98C30.4847 42.8213 30.4801 42.5367 30.4801 42.126C30.4707 41.986 30.4661 41.7993 30.4661 41.566C30.4661 41.538 30.4801 41.51 30.5081 41.482C30.5454 41.4447 30.5781 41.4213 30.6061 41.412C30.6341 41.4027 30.7974 41.398 31.0961 41.398L32.5661 41.412C32.6874 41.412 32.7994 41.258 32.9021 40.95C33.0047 40.642 33.0561 40.3807 33.0561 40.166C33.0561 40.0727 33.0421 40.026 33.0141 40.026L30.5781 40.012ZM31.4041 44.548C31.7214 44.548 31.9641 44.6507 32.1321 44.856C32.3094 45.052 32.4261 45.2713 32.4821 45.514C32.5474 45.7567 32.5801 45.9527 32.5801 46.102C32.5801 46.298 32.5427 46.5313 32.4681 46.802C32.4027 47.0633 32.2907 47.2967 32.1321 47.502C31.9827 47.698 31.7867 47.796 31.5441 47.796L30.7741 47.782C30.7647 47.782 30.7414 47.7773 30.7041 47.768C30.6761 47.7493 30.6481 47.726 30.6201 47.698C30.5921 47.67 30.5781 47.6327 30.5781 47.586C30.5781 47.11 30.5734 46.5967 30.5641 46.046C30.5547 45.4953 30.5454 45.066 30.5361 44.758C30.5361 44.6273 30.5967 44.562 30.7181 44.562C30.8861 44.5527 31.1147 44.548 31.4041 44.548ZM35.2767 40.418C35.2767 41.2767 35.2814 42.8447 35.2907 45.122C35.3 47.39 35.3094 48.5893 35.3187 48.72C35.3467 48.8693 35.4354 48.958 35.5847 48.986C35.6127 48.9953 35.72 49 35.9067 49C36.168 49 36.3687 48.9953 36.5087 48.986C36.63 48.986 36.77 48.986 36.9287 48.986C37.0874 48.9767 37.2414 48.9767 37.3907 48.986C37.8107 48.986 38.1747 48.8553 38.4827 48.594C38.8 48.3327 39.0427 47.9873 39.2107 47.558C39.3787 47.1287 39.4627 46.6713 39.4627 46.186C39.4627 45.682 39.3647 45.2107 39.1687 44.772C38.982 44.3333 38.6927 43.9787 38.3007 43.708C37.918 43.4373 37.442 43.302 36.8727 43.302C36.7327 43.2927 36.672 43.2227 36.6907 43.092V42.406V40.292C36.6907 40.152 36.616 40.082 36.4667 40.082C36.4014 40.0913 36.3127 40.096 36.2007 40.096C36.126 40.096 36.0374 40.096 35.9347 40.096C35.832 40.0867 35.7014 40.0867 35.5427 40.096C35.44 40.1053 35.37 40.138 35.3327 40.194C35.2954 40.2407 35.2767 40.3153 35.2767 40.418ZM40.0507 40.488C40.0507 40.5627 40.0507 40.8753 40.0507 41.426C40.06 41.9767 40.0647 42.672 40.0647 43.512C40.0647 46.5267 40.0554 48.2393 40.0367 48.65C40.0367 48.7713 40.0647 48.8693 40.1207 48.944C40.1767 49.0187 40.2514 49.056 40.3447 49.056C40.4754 49.0467 40.5874 49.042 40.6807 49.042C40.774 49.0513 40.8534 49.056 40.9187 49.056C41.0587 49.056 41.1614 49.0513 41.2267 49.042C41.432 49.014 41.5347 48.8787 41.5347 48.636C41.544 48.3933 41.5487 46.2187 41.5487 42.112V40.32C41.5487 40.2827 41.53 40.236 41.4927 40.18C41.4554 40.124 41.404 40.096 41.3387 40.096C41.292 40.096 41.1474 40.096 40.9047 40.096C40.6714 40.0867 40.494 40.0867 40.3727 40.096C40.158 40.124 40.0507 40.2547 40.0507 40.488ZM36.6767 44.618C36.9847 44.618 37.3114 44.702 37.6567 44.87C38.002 45.0287 38.1747 45.4393 38.1747 46.102C38.1747 46.5687 38.0767 46.9187 37.8807 47.152C37.694 47.376 37.4887 47.516 37.2647 47.572C37.0407 47.6187 36.8727 47.6327 36.7607 47.614C36.742 47.6047 36.7187 47.5813 36.6907 47.544C36.672 47.5067 36.6627 47.4693 36.6627 47.432L36.6487 45.878C36.6487 45.038 36.658 44.618 36.6767 44.618ZM46.1653 45.85C46.1746 46.3353 46.1233 46.7973 46.0113 47.236C45.9086 47.6653 45.6613 47.88 45.2693 47.88C44.9893 47.88 44.7793 47.7727 44.6393 47.558C44.5086 47.3433 44.4433 46.97 44.4433 46.438C44.4433 44.03 44.448 42.6487 44.4573 42.294C44.4573 42.0047 44.518 41.72 44.6393 41.44C44.77 41.16 45.022 41.02 45.3953 41.02C45.6286 41.02 45.7873 41.132 45.8713 41.356C45.9553 41.5707 46.0066 41.7807 46.0253 41.986C46.044 42.182 46.058 42.3033 46.0673 42.35C46.0953 42.4713 46.128 42.5507 46.1653 42.588C46.212 42.616 46.3146 42.63 46.4733 42.63L47.1033 42.616C47.2713 42.616 47.3693 42.5927 47.3973 42.546C47.4346 42.49 47.4533 42.4107 47.4533 42.308C47.4533 42.2987 47.4533 42.2753 47.4533 42.238C47.4626 42.1913 47.4673 42.1167 47.4673 42.014C47.4673 41.4447 47.3133 40.9127 47.0053 40.418C46.7066 39.9233 46.114 39.676 45.2273 39.676C44.35 39.676 43.762 39.9513 43.4633 40.502C43.1646 41.0433 43.0106 41.6173 43.0013 42.224V46.634C43.0013 47.25 43.1086 47.7587 43.3233 48.16C43.5473 48.5613 43.8366 48.8553 44.1913 49.042C44.546 49.238 44.9333 49.336 45.3533 49.336C45.876 49.336 46.3053 49.1773 46.6413 48.86C46.9773 48.5427 47.22 48.174 47.3693 47.754C47.528 47.334 47.6073 46.97 47.6073 46.662C47.6073 46.606 47.6073 46.4427 47.6073 46.172C47.6073 45.9013 47.5886 45.6447 47.5513 45.402C47.5513 45.374 47.5326 45.346 47.4953 45.318C47.4673 45.2807 47.4393 45.262 47.4113 45.262H46.8793C46.6273 45.262 46.4453 45.2667 46.3333 45.276C46.296 45.276 46.2586 45.2947 46.2213 45.332C46.1933 45.3693 46.1793 45.402 46.1793 45.43C46.17 45.4953 46.1653 45.5747 46.1653 45.668C46.1653 45.752 46.1653 45.8127 46.1653 45.85ZM48.6119 40.11C48.5559 40.1567 48.5279 40.3387 48.5279 40.656L48.5419 41.314C48.5419 41.342 48.5559 41.3747 48.5839 41.412C48.6026 41.4493 48.6213 41.468 48.6399 41.468C48.8266 41.4773 49.0973 41.4773 49.4519 41.468C49.8159 41.4587 50.0259 41.454 50.0819 41.454C50.1379 41.454 50.1706 41.5193 50.1799 41.65C50.1893 41.7713 50.1939 41.8553 50.1939 41.902C50.1939 42.49 50.1986 43.6333 50.2079 45.332C50.2173 47.0307 50.2313 48.1507 50.2499 48.692C50.2499 48.8973 50.3479 49 50.5439 49C50.9733 49 51.2953 48.9953 51.5099 48.986C51.6126 48.986 51.6639 48.9347 51.6639 48.832V43.764V41.664V41.622C51.6639 41.5473 51.7106 41.51 51.8039 41.51L52.2659 41.496C52.5366 41.4773 52.7419 41.4727 52.8819 41.482C53.1526 41.482 53.3066 41.3607 53.3439 41.118C53.3533 41.062 53.3579 40.9733 53.3579 40.852C53.3579 40.8053 53.3533 40.7447 53.3439 40.67C53.3439 40.5953 53.3486 40.5067 53.3579 40.404V40.348C53.3579 40.2547 53.3346 40.1893 53.2879 40.152C53.2506 40.1147 53.1759 40.0913 53.0639 40.082C53.0266 40.082 52.9053 40.082 52.6999 40.082C52.5039 40.0727 52.1586 40.068 51.6639 40.068C49.7786 40.068 48.7613 40.082 48.6119 40.11ZM59.4374 42.882C59.4374 42.49 59.4281 42.224 59.4094 42.084C59.3534 41.552 59.1201 41.1087 58.7094 40.754C58.2988 40.39 57.8228 40.1893 57.2814 40.152C56.7961 40.1147 56.3014 40.096 55.7974 40.096C55.3121 40.096 54.9854 40.1193 54.8174 40.166C54.7521 40.1753 54.7054 40.1987 54.6774 40.236C54.6588 40.264 54.6494 40.3107 54.6494 40.376C54.6588 40.544 54.6634 41.8787 54.6634 44.38L54.6774 48.622C54.6774 48.846 54.8034 48.9673 55.0554 48.986L55.5314 48.972C55.6341 48.972 55.7088 48.9767 55.7554 48.986L55.8674 49C56.0821 49 56.1894 48.8787 56.1894 48.636C56.1801 48.4027 56.1754 48.202 56.1754 48.034C56.1848 47.8567 56.1894 47.712 56.1894 47.6C56.1988 47.4507 56.2034 47.222 56.2034 46.914C56.2034 46.6433 56.1988 46.438 56.1894 46.298C56.1894 46.214 56.1988 46.158 56.2174 46.13C56.2454 46.102 56.3014 46.0833 56.3854 46.074C56.4694 46.0647 56.6701 46.0507 56.9874 46.032C57.3048 46.004 57.5474 45.9573 57.7154 45.892C58.2474 45.6773 58.6674 45.3367 58.9754 44.87C59.2834 44.4033 59.4374 43.9087 59.4374 43.386V42.882ZM56.1894 44.324C56.1894 43.1013 56.1801 42.2753 56.1614 41.846C56.1614 41.6967 56.2314 41.622 56.3714 41.622C56.3994 41.622 56.4974 41.622 56.6654 41.622C56.8334 41.622 56.9874 41.6313 57.1274 41.65C57.3608 41.6873 57.5708 41.8227 57.7574 42.056C57.9534 42.2893 58.0561 42.5133 58.0654 42.728C58.0654 42.9987 58.0468 43.2367 58.0094 43.442C57.9814 43.638 57.9114 43.8247 57.7994 44.002C57.5941 44.338 57.2301 44.506 56.7074 44.506C56.5394 44.506 56.3994 44.492 56.2874 44.464C56.2688 44.4547 56.2454 44.436 56.2174 44.408C56.1988 44.38 56.1894 44.352 56.1894 44.324ZM60.5013 40.418C60.5013 41.2767 60.506 42.8447 60.5153 45.122C60.5246 47.39 60.534 48.5893 60.5433 48.72C60.5713 48.8693 60.66 48.958 60.8093 48.986C60.8373 48.9953 60.9446 49 61.1313 49C61.3926 49 61.5933 48.9953 61.7333 48.986C61.8546 48.986 61.9946 48.986 62.1533 48.986C62.312 48.9767 62.466 48.9767 62.6153 48.986C63.0353 48.986 63.3993 48.8553 63.7073 48.594C64.0246 48.3327 64.2673 47.9873 64.4353 47.558C64.6033 47.1287 64.6873 46.6713 64.6873 46.186C64.6873 45.682 64.5893 45.2107 64.3933 44.772C64.2066 44.3333 63.9173 43.9787 63.5253 43.708C63.1426 43.4373 62.6666 43.302 62.0973 43.302C61.9573 43.2927 61.8966 43.2227 61.9153 43.092V42.406V40.292C61.9153 40.152 61.8406 40.082 61.6913 40.082C61.626 40.0913 61.5373 40.096 61.4253 40.096C61.3506 40.096 61.262 40.096 61.1593 40.096C61.0566 40.0867 60.926 40.0867 60.7673 40.096C60.6646 40.1053 60.5946 40.138 60.5573 40.194C60.52 40.2407 60.5013 40.3153 60.5013 40.418ZM65.2753 40.488C65.2753 40.5627 65.2753 40.8753 65.2753 41.426C65.2846 41.9767 65.2893 42.672 65.2893 43.512C65.2893 46.5267 65.28 48.2393 65.2613 48.65C65.2613 48.7713 65.2893 48.8693 65.3453 48.944C65.4013 49.0187 65.476 49.056 65.5693 49.056C65.7 49.0467 65.812 49.042 65.9053 49.042C65.9986 49.0513 66.078 49.056 66.1433 49.056C66.2833 49.056 66.386 49.0513 66.4513 49.042C66.6566 49.014 66.7593 48.8787 66.7593 48.636C66.7686 48.3933 66.7733 46.2187 66.7733 42.112V40.32C66.7733 40.2827 66.7546 40.236 66.7173 40.18C66.68 40.124 66.6286 40.096 66.5633 40.096C66.5166 40.096 66.372 40.096 66.1293 40.096C65.896 40.0867 65.7186 40.0867 65.5973 40.096C65.3826 40.124 65.2753 40.2547 65.2753 40.488ZM61.9013 44.618C62.2093 44.618 62.536 44.702 62.8813 44.87C63.2266 45.0287 63.3993 45.4393 63.3993 46.102C63.3993 46.5687 63.3013 46.9187 63.1053 47.152C62.9186 47.376 62.7133 47.516 62.4893 47.572C62.2653 47.6187 62.0973 47.6327 61.9853 47.614C61.9666 47.6047 61.9433 47.5813 61.9153 47.544C61.8966 47.5067 61.8873 47.4693 61.8873 47.432L61.8733 45.878C61.8733 45.038 61.8826 44.618 61.9013 44.618ZM69.9059 37.814C69.8966 37.758 69.8266 37.716 69.6959 37.688C69.5746 37.6507 69.4253 37.632 69.2479 37.632C69.0986 37.632 68.9726 37.646 68.8699 37.674C68.7673 37.6927 68.7159 37.7253 68.7159 37.772L68.7019 37.996C68.7019 38.416 68.8419 38.7987 69.1219 39.144C69.4019 39.4893 69.9526 39.662 70.7739 39.662C71.2966 39.662 71.7026 39.55 71.9919 39.326C72.2813 39.102 72.4726 38.864 72.5659 38.612C72.6593 38.36 72.7293 38.094 72.7759 37.814C72.7853 37.758 72.6779 37.6973 72.4539 37.632C72.2393 37.5667 72.0386 37.534 71.8519 37.534C71.6933 37.534 71.6139 37.562 71.6139 37.618C71.5859 37.8607 71.4926 38.094 71.3339 38.318C71.1846 38.5327 70.9933 38.64 70.7599 38.64C70.4519 38.64 70.2373 38.57 70.1159 38.43C69.9946 38.29 69.9246 38.0847 69.9059 37.814ZM69.9059 44.94C69.8593 45.0707 69.8033 45.206 69.7379 45.346C69.6726 45.486 69.6259 45.556 69.5979 45.556C69.5699 45.556 69.5559 45.486 69.5559 45.346L69.5699 40.348V40.334C69.5699 40.2873 69.5559 40.236 69.5279 40.18C69.4999 40.124 69.4719 40.0913 69.4439 40.082C69.2386 40.0633 69.0753 40.054 68.9539 40.054L68.6179 40.068C68.4873 40.0867 68.3939 40.124 68.3379 40.18C68.2819 40.2267 68.2446 40.3153 68.2259 40.446C68.2259 40.474 68.2213 40.5767 68.2119 40.754C68.2119 40.922 68.2119 41.2347 68.2119 41.692C68.2119 43.008 68.2166 44.3427 68.2259 45.696C68.2353 47.04 68.2446 48.0247 68.2539 48.65C68.2539 48.8087 68.3286 48.9067 68.4779 48.944C68.7019 48.9813 68.9353 49 69.1779 49C69.3459 49 69.4579 48.986 69.5139 48.958C69.5886 48.9207 69.8873 48.2907 70.4099 47.068C70.9326 45.836 71.3386 44.8653 71.6279 44.156C71.7119 43.9413 71.7633 43.834 71.7819 43.834C71.8006 43.834 71.8146 43.8527 71.8239 43.89C71.8333 43.918 71.8379 43.9413 71.8379 43.96L71.8659 48.398C71.8753 48.65 71.8893 48.804 71.9079 48.86C71.9266 48.916 72.0059 48.9487 72.1459 48.958L72.6639 48.972C73.0279 48.972 73.2099 48.9393 73.2099 48.874V42.616V40.278C73.2099 40.194 73.1913 40.138 73.1539 40.11C73.1259 40.082 73.0699 40.0727 72.9859 40.082C72.9206 40.0913 72.8459 40.096 72.7619 40.096C72.6873 40.0867 72.6173 40.082 72.5519 40.082H72.2579C71.9499 40.082 71.7913 40.1053 71.7819 40.152C71.5953 40.6373 71.2593 41.5007 70.7739 42.742C70.2979 43.974 70.0086 44.7067 69.9059 44.94ZM78.8895 40.152H78.4275C78.2969 40.152 78.2315 40.2173 78.2315 40.348C77.8302 45.444 77.6062 48.1413 77.5595 48.44C77.5502 48.4773 77.5455 48.524 77.5455 48.58C77.5455 48.8227 77.6809 48.9627 77.9515 49C78.0822 49.0093 78.2315 49.0093 78.3995 49C78.5769 48.9813 78.6982 48.972 78.7635 48.972C78.8755 48.972 78.9362 48.916 78.9455 48.804C79.0015 48.1507 79.0669 47.348 79.1415 46.396C79.2162 45.4347 79.2722 44.6647 79.3095 44.086C79.3095 43.946 79.3235 43.876 79.3515 43.876C79.3609 43.876 79.3702 43.89 79.3795 43.918C79.3982 43.9367 79.4075 43.9553 79.4075 43.974C79.4635 44.1513 79.6129 44.5667 79.8555 45.22C79.9022 45.36 79.9862 45.6027 80.1075 45.948C80.2382 46.284 80.3455 46.5873 80.4295 46.858C80.4669 46.9607 80.5089 47.0447 80.5555 47.11C80.6115 47.166 80.6862 47.1987 80.7795 47.208C80.8729 47.2267 80.9942 47.236 81.1435 47.236C81.3209 47.236 81.4889 47.2127 81.6475 47.166C81.6755 47.1567 81.7129 47.1053 81.7595 47.012C81.8435 46.7133 81.9789 46.2467 82.1655 45.612C82.3615 44.9773 82.5435 44.3987 82.7115 43.876C82.7395 43.8013 82.7629 43.764 82.7815 43.764C82.8095 43.764 82.8282 43.7967 82.8375 43.862C82.9122 44.3007 83.0289 45.136 83.1875 46.368C83.3462 47.5907 83.4395 48.37 83.4675 48.706C83.4862 48.8927 83.5282 49.014 83.5935 49.07C83.6589 49.1353 83.7802 49.1587 83.9575 49.14C83.9949 49.14 84.1582 49.1167 84.4475 49.07C84.7462 49.0327 84.8955 48.9813 84.8955 48.916C84.9049 48.8693 84.7929 47.712 84.5595 45.444C84.3355 43.176 84.1582 41.4307 84.0275 40.208C84.0275 40.1707 84.0135 40.1427 83.9855 40.124C83.9575 40.096 83.9295 40.0773 83.9015 40.068C83.8735 40.0587 83.8549 40.054 83.8455 40.054H82.6415C82.6229 40.054 82.5809 40.068 82.5155 40.096C82.4595 40.124 82.4269 40.1613 82.4175 40.208L81.1715 44.114C81.1435 44.198 81.1155 44.24 81.0875 44.24C81.0502 44.24 81.0175 44.1793 80.9895 44.058C80.8402 43.5913 80.5789 42.826 80.2055 41.762C79.8322 40.6887 79.6315 40.152 79.6035 40.152H78.8895ZM86.3064 45.92L85.6344 48.538C85.625 48.5567 85.6204 48.5893 85.6204 48.636C85.6204 48.7667 85.7044 48.846 85.8724 48.874C85.9284 48.8833 86.003 48.8927 86.0964 48.902C86.1897 48.9113 86.297 48.93 86.4184 48.958C86.5304 48.9767 86.605 48.986 86.6424 48.986C86.7544 48.986 86.843 48.958 86.9084 48.902C86.983 48.8367 87.0484 48.734 87.1044 48.594C87.123 48.538 87.1697 48.3607 87.2444 48.062C87.319 47.754 87.375 47.5533 87.4124 47.46C87.431 47.4227 87.459 47.39 87.4964 47.362C87.5337 47.3247 87.571 47.306 87.6084 47.306L89.1624 47.292C89.2744 47.292 89.3444 47.3433 89.3724 47.446L89.6804 48.874C89.699 48.9673 89.727 49.0327 89.7644 49.07C89.8017 49.1167 89.853 49.14 89.9184 49.14C89.9464 49.14 89.9977 49.1307 90.0724 49.112C90.2684 49.0653 90.4597 49.0093 90.6464 48.944C90.777 48.8973 90.8704 48.8507 90.9264 48.804C90.9824 48.748 91.0104 48.6733 91.0104 48.58C91.0104 48.5147 90.9964 48.426 90.9684 48.314L90.4084 45.822C90.315 45.4207 90.1004 44.4687 89.7644 42.966C89.4284 41.4633 89.2277 40.6047 89.1624 40.39C89.1437 40.3153 88.9104 40.2827 88.4624 40.292C88.0237 40.292 87.7904 40.292 87.7624 40.292L86.3064 45.92ZM88.3784 43.232C88.4157 43.12 88.4437 43.064 88.4624 43.064C88.5277 43.064 88.607 43.2973 88.7004 43.764L88.8264 44.506C88.9384 45.1967 89.0037 45.5793 89.0224 45.654C89.0317 45.6913 89.0364 45.7427 89.0364 45.808C89.0364 45.864 89.0177 45.9013 88.9804 45.92C88.9524 45.9387 88.8917 45.948 88.7984 45.948C88.4437 45.9667 88.1544 45.976 87.9304 45.976C87.8277 45.976 87.7904 45.92 87.8184 45.808C87.8837 45.5373 87.977 45.1127 88.0984 44.534C88.2477 43.806 88.341 43.372 88.3784 43.232ZM92.1657 48.818C92.175 48.8833 92.217 48.944 92.2917 49C92.4224 49.0933 92.567 49.14 92.7257 49.14C92.8097 49.14 92.8797 49.1353 92.9357 49.126C92.9917 49.1167 93.0384 49.1073 93.0757 49.098C93.253 49.0793 93.365 49.0467 93.4117 49C93.4584 48.944 93.4817 48.8227 93.4817 48.636L93.4677 45.878C93.4677 43.4607 93.477 41.9813 93.4957 41.44L94.1397 41.426C94.8397 41.426 95.2877 41.4213 95.4837 41.412H95.6097C95.6657 41.412 95.703 41.398 95.7217 41.37C95.7964 41.2113 95.8337 40.9733 95.8337 40.656C95.8337 40.4413 95.8244 40.2873 95.8057 40.194C95.8057 40.166 95.773 40.138 95.7077 40.11C95.6517 40.0727 95.563 40.0493 95.4417 40.04C95.2457 40.0307 94.2237 40.026 92.3757 40.026C92.3104 40.026 92.2544 40.0633 92.2077 40.138C92.161 40.2127 92.1377 40.292 92.1377 40.376L92.1657 48.818ZM97.531 45.92L96.859 48.538C96.8497 48.5567 96.845 48.5893 96.845 48.636C96.845 48.7667 96.929 48.846 97.097 48.874C97.153 48.8833 97.2277 48.8927 97.321 48.902C97.4143 48.9113 97.5217 48.93 97.643 48.958C97.755 48.9767 97.8297 48.986 97.867 48.986C97.979 48.986 98.0677 48.958 98.133 48.902C98.2077 48.8367 98.273 48.734 98.329 48.594C98.3477 48.538 98.3943 48.3607 98.469 48.062C98.5437 47.754 98.5997 47.5533 98.637 47.46C98.6557 47.4227 98.6837 47.39 98.721 47.362C98.7583 47.3247 98.7957 47.306 98.833 47.306L100.387 47.292C100.499 47.292 100.569 47.3433 100.597 47.446L100.905 48.874C100.924 48.9673 100.952 49.0327 100.989 49.07C101.026 49.1167 101.078 49.14 101.143 49.14C101.171 49.14 101.222 49.1307 101.297 49.112C101.493 49.0653 101.684 49.0093 101.871 48.944C102.002 48.8973 102.095 48.8507 102.151 48.804C102.207 48.748 102.235 48.6733 102.235 48.58C102.235 48.5147 102.221 48.426 102.193 48.314L101.633 45.822C101.54 45.4207 101.325 44.4687 100.989 42.966C100.653 41.4633 100.452 40.6047 100.387 40.39C100.368 40.3153 100.135 40.2827 99.687 40.292C99.2483 40.292 99.015 40.292 98.987 40.292L97.531 45.92ZM99.603 43.232C99.6403 43.12 99.6683 43.064 99.687 43.064C99.7523 43.064 99.8317 43.2973 99.925 43.764L100.051 44.506C100.163 45.1967 100.228 45.5793 100.247 45.654C100.256 45.6913 100.261 45.7427 100.261 45.808C100.261 45.864 100.242 45.9013 100.205 45.92C100.177 45.9387 100.116 45.948 100.023 45.948C99.6683 45.9667 99.379 45.976 99.155 45.976C99.0523 45.976 99.015 45.92 99.043 45.808C99.1083 45.5373 99.2017 45.1127 99.323 44.534C99.4723 43.806 99.5657 43.372 99.603 43.232ZM103.735 42.084C103.763 42.112 103.795 42.126 103.833 42.126C103.954 42.126 104.071 42.0607 104.183 41.93C104.407 41.678 104.677 41.4587 104.995 41.272C105.321 41.0853 105.615 40.992 105.877 40.992C106.334 40.992 106.563 41.2953 106.563 41.902C106.563 42.0233 106.521 42.1773 106.437 42.364C106.353 42.5507 106.264 42.6767 106.171 42.742C105.984 42.854 105.732 42.9473 105.415 43.022C105.107 43.0967 104.883 43.134 104.743 43.134C104.696 43.134 104.654 43.2227 104.617 43.4C104.589 43.5773 104.575 43.764 104.575 43.96C104.575 44.2493 104.607 44.394 104.673 44.394C104.99 44.394 105.27 44.3987 105.513 44.408C105.951 44.4173 106.292 44.59 106.535 44.926C106.777 45.2527 106.899 45.6447 106.899 46.102C106.899 46.5593 106.777 46.9607 106.535 47.306C106.301 47.6513 105.979 47.824 105.569 47.824C105.317 47.824 105.079 47.7447 104.855 47.586C104.64 47.4273 104.477 47.236 104.365 47.012C104.29 46.872 104.225 46.6247 104.169 46.27C104.122 45.906 104.089 45.696 104.071 45.64C104.061 45.6213 104.033 45.6073 103.987 45.598C103.949 45.5793 103.921 45.5793 103.903 45.598C103.492 45.738 103.203 45.8547 103.035 45.948C102.96 45.9947 102.89 46.06 102.825 46.144C102.759 46.2187 102.727 46.2887 102.727 46.354C102.727 46.69 102.82 47.0913 103.007 47.558C103.203 48.0247 103.515 48.4353 103.945 48.79C104.374 49.1447 104.925 49.322 105.597 49.322C106.306 49.322 106.95 49.1027 107.529 48.664C108.107 48.216 108.397 47.3807 108.397 46.158C108.397 45.0007 108.061 44.1747 107.389 43.68C107.305 43.624 107.263 43.582 107.263 43.554C107.263 43.5353 107.277 43.5167 107.305 43.498C107.342 43.4793 107.37 43.456 107.389 43.428C107.491 43.288 107.613 43.0593 107.753 42.742C107.893 42.4153 107.963 42.042 107.963 41.622C107.963 41.2953 107.874 40.9873 107.697 40.698C107.519 40.3993 107.272 40.1613 106.955 39.984C106.637 39.8067 106.278 39.718 105.877 39.718C105.447 39.718 105.032 39.8067 104.631 39.984C104.239 40.1613 103.907 40.362 103.637 40.586C103.366 40.81 103.231 40.9547 103.231 41.02C103.231 41.0853 103.301 41.2673 103.441 41.566C103.581 41.8553 103.679 42.028 103.735 42.084ZM111.263 44.94C111.217 45.0707 111.161 45.206 111.095 45.346C111.03 45.486 110.983 45.556 110.955 45.556C110.927 45.556 110.913 45.486 110.913 45.346L110.927 40.348V40.334C110.927 40.2873 110.913 40.236 110.885 40.18C110.857 40.124 110.829 40.0913 110.801 40.082C110.596 40.0633 110.433 40.054 110.311 40.054L109.975 40.068C109.845 40.0867 109.751 40.124 109.695 40.18C109.639 40.2267 109.602 40.3153 109.583 40.446C109.583 40.474 109.579 40.5767 109.569 40.754C109.569 40.922 109.569 41.2347 109.569 41.692C109.569 43.008 109.574 44.3427 109.583 45.696C109.593 47.04 109.602 48.0247 109.611 48.65C109.611 48.8087 109.686 48.9067 109.835 48.944C110.059 48.9813 110.293 49 110.535 49C110.703 49 110.815 48.986 110.871 48.958C110.946 48.9207 111.245 48.2907 111.767 47.068C112.29 45.836 112.696 44.8653 112.985 44.156C113.069 43.9413 113.121 43.834 113.139 43.834C113.158 43.834 113.172 43.8527 113.181 43.89C113.191 43.918 113.195 43.9413 113.195 43.96L113.223 48.398C113.233 48.65 113.247 48.804 113.265 48.86C113.284 48.916 113.363 48.9487 113.503 48.958L114.021 48.972C114.385 48.972 114.567 48.9393 114.567 48.874V42.616V40.278C114.567 40.194 114.549 40.138 114.511 40.11C114.483 40.082 114.427 40.0727 114.343 40.082C114.278 40.0913 114.203 40.096 114.119 40.096C114.045 40.0867 113.975 40.082 113.909 40.082H113.615C113.307 40.082 113.149 40.1053 113.139 40.152C112.953 40.6373 112.617 41.5007 112.131 42.742C111.655 43.974 111.366 44.7067 111.263 44.94ZM117.434 48.888C117.499 48.888 117.537 48.8227 117.546 48.692C117.565 48.552 117.569 48.412 117.56 48.272C117.56 48.132 117.56 48.034 117.56 47.978L117.602 44.968C117.602 44.8467 117.658 44.786 117.77 44.786C118.097 44.7953 118.587 44.8 119.24 44.8C119.305 44.8093 119.347 44.828 119.366 44.856C119.394 44.884 119.408 44.926 119.408 44.982C119.399 45.2433 119.394 45.906 119.394 46.97L119.38 48.72C119.38 48.832 119.403 48.9253 119.45 49C119.506 49.0747 119.581 49.112 119.674 49.112C120.047 49.112 120.379 49.098 120.668 49.07C120.799 49.0607 120.883 49.0327 120.92 48.986C120.957 48.9393 120.985 48.846 121.004 48.706L121.032 46.27C121.051 42.6487 121.069 40.6747 121.088 40.348V40.306C121.088 40.1753 121.018 40.1193 120.878 40.138C120.729 40.1473 120.481 40.152 120.136 40.152C120.024 40.1613 119.861 40.166 119.646 40.166C119.571 40.166 119.515 40.18 119.478 40.208C119.45 40.236 119.436 40.2873 119.436 40.362L119.422 41.734C119.413 42.0233 119.408 42.3173 119.408 42.616C119.408 42.9147 119.403 43.1527 119.394 43.33C119.338 43.3487 119.305 43.358 119.296 43.358C119.193 43.3673 119.049 43.372 118.862 43.372H118.498C118.423 43.372 118.325 43.372 118.204 43.372C118.083 43.3627 117.933 43.3627 117.756 43.372H117.728C117.681 43.372 117.649 43.358 117.63 43.33C117.611 43.2927 117.607 43.2507 117.616 43.204L117.63 42.056C117.63 41.2627 117.621 40.6607 117.602 40.25C117.602 40.2407 117.588 40.2267 117.56 40.208C117.532 40.18 117.504 40.1613 117.476 40.152L116.594 40.138C116.323 40.138 116.179 40.1473 116.16 40.166C116.132 40.194 116.118 40.2313 116.118 40.278C116.118 40.3247 116.118 40.3527 116.118 40.362V41.454V46.942V48.454C116.118 48.4913 116.118 48.5567 116.118 48.65C116.127 48.734 116.146 48.7947 116.174 48.832C116.211 48.86 116.277 48.8787 116.37 48.888C116.445 48.8973 116.575 48.902 116.762 48.902L117.434 48.888ZM125.188 40.11C125.132 40.1567 125.104 40.3387 125.104 40.656L125.118 41.314C125.118 41.342 125.132 41.3747 125.16 41.412C125.179 41.4493 125.197 41.468 125.216 41.468C125.403 41.4773 125.673 41.4773 126.028 41.468C126.392 41.4587 126.602 41.454 126.658 41.454C126.714 41.454 126.747 41.5193 126.756 41.65C126.765 41.7713 126.77 41.8553 126.77 41.902C126.77 42.49 126.775 43.6333 126.784 45.332C126.793 47.0307 126.807 48.1507 126.826 48.692C126.826 48.8973 126.924 49 127.12 49C127.549 49 127.871 48.9953 128.086 48.986C128.189 48.986 128.24 48.9347 128.24 48.832V43.764V41.664V41.622C128.24 41.5473 128.287 41.51 128.38 41.51L128.842 41.496C129.113 41.4773 129.318 41.4727 129.458 41.482C129.729 41.482 129.883 41.3607 129.92 41.118C129.929 41.062 129.934 40.9733 129.934 40.852C129.934 40.8053 129.929 40.7447 129.92 40.67C129.92 40.5953 129.925 40.5067 129.934 40.404V40.348C129.934 40.2547 129.911 40.1893 129.864 40.152C129.827 40.1147 129.752 40.0913 129.64 40.082C129.603 40.082 129.481 40.082 129.276 40.082C129.08 40.0727 128.735 40.068 128.24 40.068C126.355 40.068 125.337 40.082 125.188 40.11ZM130.576 45.92L129.904 48.538C129.895 48.5567 129.89 48.5893 129.89 48.636C129.89 48.7667 129.974 48.846 130.142 48.874C130.198 48.8833 130.273 48.8927 130.366 48.902C130.459 48.9113 130.567 48.93 130.688 48.958C130.8 48.9767 130.875 48.986 130.912 48.986C131.024 48.986 131.113 48.958 131.178 48.902C131.253 48.8367 131.318 48.734 131.374 48.594C131.393 48.538 131.439 48.3607 131.514 48.062C131.589 47.754 131.645 47.5533 131.682 47.46C131.701 47.4227 131.729 47.39 131.766 47.362C131.803 47.3247 131.841 47.306 131.878 47.306L133.432 47.292C133.544 47.292 133.614 47.3433 133.642 47.446L133.95 48.874C133.969 48.9673 133.997 49.0327 134.034 49.07C134.071 49.1167 134.123 49.14 134.188 49.14C134.216 49.14 134.267 49.1307 134.342 49.112C134.538 49.0653 134.729 49.0093 134.916 48.944C135.047 48.8973 135.14 48.8507 135.196 48.804C135.252 48.748 135.28 48.6733 135.28 48.58C135.28 48.5147 135.266 48.426 135.238 48.314L134.678 45.822C134.585 45.4207 134.37 44.4687 134.034 42.966C133.698 41.4633 133.497 40.6047 133.432 40.39C133.413 40.3153 133.18 40.2827 132.732 40.292C132.293 40.292 132.06 40.292 132.032 40.292L130.576 45.92ZM132.648 43.232C132.685 43.12 132.713 43.064 132.732 43.064C132.797 43.064 132.877 43.2973 132.97 43.764L133.096 44.506C133.208 45.1967 133.273 45.5793 133.292 45.654C133.301 45.6913 133.306 45.7427 133.306 45.808C133.306 45.864 133.287 45.9013 133.25 45.92C133.222 45.9387 133.161 45.948 133.068 45.948C132.713 45.9667 132.424 45.976 132.2 45.976C132.097 45.976 132.06 45.92 132.088 45.808C132.153 45.5373 132.247 45.1127 132.368 44.534C132.517 43.806 132.611 43.372 132.648 43.232ZM137.779 40.012C137.117 40.012 136.711 40.0167 136.561 40.026C136.533 40.0353 136.501 40.054 136.463 40.082C136.435 40.1007 136.417 40.124 136.407 40.152C136.398 40.2173 136.393 40.782 136.393 41.846C136.393 44.506 136.403 46.6573 136.421 48.3V48.804C136.421 48.9907 136.482 49.084 136.603 49.084L138.871 49.112C139.394 49.112 139.828 48.9813 140.173 48.72C140.519 48.4493 140.766 48.1227 140.915 47.74C141.074 47.3573 141.153 46.984 141.153 46.62V46.074C141.153 45.7473 141.139 45.43 141.111 45.122C141.093 44.7207 140.841 44.2633 140.355 43.75C139.945 43.3393 139.287 43.134 138.381 43.134C138.213 43.134 138.092 43.1387 138.017 43.148C137.952 43.148 137.91 43.148 137.891 43.148C137.761 43.148 137.695 43.092 137.695 42.98C137.686 42.8213 137.681 42.5367 137.681 42.126C137.672 41.986 137.667 41.7993 137.667 41.566C137.667 41.538 137.681 41.51 137.709 41.482C137.747 41.4447 137.779 41.4213 137.807 41.412C137.835 41.4027 137.999 41.398 138.297 41.398L139.767 41.412C139.889 41.412 140.001 41.258 140.103 40.95C140.206 40.642 140.257 40.3807 140.257 40.166C140.257 40.0727 140.243 40.026 140.215 40.026L137.779 40.012ZM138.605 44.548C138.923 44.548 139.165 44.6507 139.333 44.856C139.511 45.052 139.627 45.2713 139.683 45.514C139.749 45.7567 139.781 45.9527 139.781 46.102C139.781 46.298 139.744 46.5313 139.669 46.802C139.604 47.0633 139.492 47.2967 139.333 47.502C139.184 47.698 138.988 47.796 138.745 47.796L137.975 47.782C137.966 47.782 137.943 47.7773 137.905 47.768C137.877 47.7493 137.849 47.726 137.821 47.698C137.793 47.67 137.779 47.6327 137.779 47.586C137.779 47.11 137.775 46.5967 137.765 46.046C137.756 45.4953 137.747 45.066 137.737 44.758C137.737 44.6273 137.798 44.562 137.919 44.562C138.087 44.5527 138.316 44.548 138.605 44.548ZM142.552 45.92L141.88 48.538C141.871 48.5567 141.866 48.5893 141.866 48.636C141.866 48.7667 141.95 48.846 142.118 48.874C142.174 48.8833 142.249 48.8927 142.342 48.902C142.436 48.9113 142.543 48.93 142.664 48.958C142.776 48.9767 142.851 48.986 142.888 48.986C143 48.986 143.089 48.958 143.154 48.902C143.229 48.8367 143.294 48.734 143.35 48.594C143.369 48.538 143.416 48.3607 143.49 48.062C143.565 47.754 143.621 47.5533 143.658 47.46C143.677 47.4227 143.705 47.39 143.742 47.362C143.78 47.3247 143.817 47.306 143.854 47.306L145.408 47.292C145.52 47.292 145.59 47.3433 145.618 47.446L145.926 48.874C145.945 48.9673 145.973 49.0327 146.01 49.07C146.048 49.1167 146.099 49.14 146.164 49.14C146.192 49.14 146.244 49.1307 146.318 49.112C146.514 49.0653 146.706 49.0093 146.892 48.944C147.023 48.8973 147.116 48.8507 147.172 48.804C147.228 48.748 147.256 48.6733 147.256 48.58C147.256 48.5147 147.242 48.426 147.214 48.314L146.654 45.822C146.561 45.4207 146.346 44.4687 146.01 42.966C145.674 41.4633 145.474 40.6047 145.408 40.39C145.39 40.3153 145.156 40.2827 144.708 40.292C144.27 40.292 144.036 40.292 144.008 40.292L142.552 45.92ZM144.624 43.232C144.662 43.12 144.69 43.064 144.708 43.064C144.774 43.064 144.853 43.2973 144.946 43.764L145.072 44.506C145.184 45.1967 145.25 45.5793 145.268 45.654C145.278 45.6913 145.282 45.7427 145.282 45.808C145.282 45.864 145.264 45.9013 145.226 45.92C145.198 45.9387 145.138 45.948 145.044 45.948C144.69 45.9667 144.4 45.976 144.176 45.976C144.074 45.976 144.036 45.92 144.064 45.808C144.13 45.5373 144.223 45.1127 144.344 44.534C144.494 43.806 144.587 43.372 144.624 43.232ZM149.882 42.938C149.863 42.5833 149.854 41.7013 149.854 40.292V40.25C149.854 40.1847 149.84 40.1427 149.812 40.124C149.784 40.096 149.732 40.082 149.658 40.082C149.228 40.1007 148.874 40.11 148.594 40.11C148.51 40.11 148.454 40.1287 148.426 40.166C148.407 40.2033 148.398 40.2687 148.398 40.362V48.846C148.398 48.9207 148.412 48.9673 148.44 48.986C148.496 49.014 148.645 49.028 148.888 49.028C149.214 49.028 149.462 49.0187 149.63 49C149.77 48.9813 149.84 48.9113 149.84 48.79L149.882 44.688C149.882 44.436 149.98 44.31 150.176 44.31C150.26 44.31 150.367 44.3287 150.498 44.366C150.694 44.4127 150.866 44.5153 151.016 44.674C151.165 44.8233 151.254 45.01 151.282 45.234C151.3 45.4953 151.31 46.228 151.31 47.432C151.319 47.7213 151.324 48.0573 151.324 48.44C151.333 48.692 151.342 48.846 151.352 48.902C151.37 48.958 151.394 48.9907 151.422 49C151.459 49 151.678 49 152.08 49C152.369 49 152.546 48.9953 152.612 48.986C152.63 48.986 152.649 48.972 152.668 48.944C152.686 48.9067 152.696 48.874 152.696 48.846C152.705 48.7713 152.71 48.258 152.71 47.306V45.556C152.738 45.1267 152.672 44.7627 152.514 44.464C152.327 44.1373 152.103 43.8947 151.842 43.736C151.786 43.6987 151.758 43.666 151.758 43.638C151.758 43.6007 151.786 43.568 151.842 43.54C152.075 43.4093 152.252 43.2133 152.374 42.952C152.495 42.6813 152.565 42.4387 152.584 42.224C152.593 42.0933 152.598 41.6873 152.598 41.006V40.516C152.588 40.3387 152.565 40.236 152.528 40.208C152.5 40.1707 152.397 40.152 152.22 40.152H151.604C151.352 40.152 151.221 40.1567 151.212 40.166C151.202 40.1753 151.198 40.2967 151.198 40.53C151.207 40.7633 151.212 40.964 151.212 41.132C151.221 41.3093 151.226 41.5147 151.226 41.748C151.226 42.0373 151.16 42.28 151.03 42.476C150.899 42.6627 150.74 42.798 150.554 42.882C150.376 42.966 150.213 43.008 150.064 43.008C149.942 43.008 149.882 42.9847 149.882 42.938ZM154.297 45.92L153.625 48.538C153.615 48.5567 153.611 48.5893 153.611 48.636C153.611 48.7667 153.695 48.846 153.863 48.874C153.919 48.8833 153.993 48.8927 154.087 48.902C154.18 48.9113 154.287 48.93 154.409 48.958C154.521 48.9767 154.595 48.986 154.633 48.986C154.745 48.986 154.833 48.958 154.899 48.902C154.973 48.8367 155.039 48.734 155.095 48.594C155.113 48.538 155.16 48.3607 155.235 48.062C155.309 47.754 155.365 47.5533 155.403 47.46C155.421 47.4227 155.449 47.39 155.487 47.362C155.524 47.3247 155.561 47.306 155.599 47.306L157.153 47.292C157.265 47.292 157.335 47.3433 157.363 47.446L157.671 48.874C157.689 48.9673 157.717 49.0327 157.755 49.07C157.792 49.1167 157.843 49.14 157.909 49.14C157.937 49.14 157.988 49.1307 158.063 49.112C158.259 49.0653 158.45 49.0093 158.637 48.944C158.767 48.8973 158.861 48.8507 158.917 48.804C158.973 48.748 159.001 48.6733 159.001 48.58C159.001 48.5147 158.987 48.426 158.959 48.314L158.399 45.822C158.305 45.4207 158.091 44.4687 157.755 42.966C157.419 41.4633 157.218 40.6047 157.153 40.39C157.134 40.3153 156.901 40.2827 156.453 40.292C156.014 40.292 155.781 40.292 155.753 40.292L154.297 45.92ZM156.369 43.232C156.406 43.12 156.434 43.064 156.453 43.064C156.518 43.064 156.597 43.2973 156.691 43.764L156.817 44.506C156.929 45.1967 156.994 45.5793 157.013 45.654C157.022 45.6913 157.027 45.7427 157.027 45.808C157.027 45.864 157.008 45.9013 156.971 45.92C156.943 45.9387 156.882 45.948 156.789 45.948C156.434 45.9667 156.145 45.976 155.921 45.976C155.818 45.976 155.781 45.92 155.809 45.808C155.874 45.5373 155.967 45.1127 156.089 44.534C156.238 43.806 156.331 43.372 156.369 43.232ZM164.884 44.94C164.838 45.0707 164.782 45.206 164.716 45.346C164.651 45.486 164.604 45.556 164.576 45.556C164.548 45.556 164.534 45.486 164.534 45.346L164.548 40.348V40.334C164.548 40.2873 164.534 40.236 164.506 40.18C164.478 40.124 164.45 40.0913 164.422 40.082C164.217 40.0633 164.054 40.054 163.932 40.054L163.596 40.068C163.466 40.0867 163.372 40.124 163.316 40.18C163.26 40.2267 163.223 40.3153 163.204 40.446C163.204 40.474 163.2 40.5767 163.19 40.754C163.19 40.922 163.19 41.2347 163.19 41.692C163.19 43.008 163.195 44.3427 163.204 45.696C163.214 47.04 163.223 48.0247 163.232 48.65C163.232 48.8087 163.307 48.9067 163.456 48.944C163.68 48.9813 163.914 49 164.156 49C164.324 49 164.436 48.986 164.492 48.958C164.567 48.9207 164.866 48.2907 165.388 47.068C165.911 45.836 166.317 44.8653 166.606 44.156C166.69 43.9413 166.742 43.834 166.76 43.834C166.779 43.834 166.793 43.8527 166.802 43.89C166.812 43.918 166.816 43.9413 166.816 43.96L166.844 48.398C166.854 48.65 166.868 48.804 166.886 48.86C166.905 48.916 166.984 48.9487 167.124 48.958L167.642 48.972C168.006 48.972 168.188 48.9393 168.188 48.874V42.616V40.278C168.188 40.194 168.17 40.138 168.132 40.11C168.104 40.082 168.048 40.0727 167.964 40.082C167.899 40.0913 167.824 40.096 167.74 40.096C167.666 40.0867 167.596 40.082 167.53 40.082H167.236C166.928 40.082 166.77 40.1053 166.76 40.152C166.574 40.6373 166.238 41.5007 165.752 42.742C165.276 43.974 164.987 44.7067 164.884 44.94ZM173.095 45.92L172.423 48.538C172.414 48.5567 172.409 48.5893 172.409 48.636C172.409 48.7667 172.493 48.846 172.661 48.874C172.717 48.8833 172.792 48.8927 172.885 48.902C172.979 48.9113 173.086 48.93 173.207 48.958C173.319 48.9767 173.394 48.986 173.431 48.986C173.543 48.986 173.632 48.958 173.697 48.902C173.772 48.8367 173.837 48.734 173.893 48.594C173.912 48.538 173.959 48.3607 174.033 48.062C174.108 47.754 174.164 47.5533 174.201 47.46C174.22 47.4227 174.248 47.39 174.285 47.362C174.323 47.3247 174.36 47.306 174.397 47.306L175.951 47.292C176.063 47.292 176.133 47.3433 176.161 47.446L176.469 48.874C176.488 48.9673 176.516 49.0327 176.553 49.07C176.591 49.1167 176.642 49.14 176.707 49.14C176.735 49.14 176.787 49.1307 176.861 49.112C177.057 49.0653 177.249 49.0093 177.435 48.944C177.566 48.8973 177.659 48.8507 177.715 48.804C177.771 48.748 177.799 48.6733 177.799 48.58C177.799 48.5147 177.785 48.426 177.757 48.314L177.197 45.822C177.104 45.4207 176.889 44.4687 176.553 42.966C176.217 41.4633 176.017 40.6047 175.951 40.39C175.933 40.3153 175.699 40.2827 175.251 40.292C174.813 40.292 174.579 40.292 174.551 40.292L173.095 45.92ZM175.167 43.232C175.205 43.12 175.233 43.064 175.251 43.064C175.317 43.064 175.396 43.2973 175.489 43.764L175.615 44.506C175.727 45.1967 175.793 45.5793 175.811 45.654C175.821 45.6913 175.825 45.7427 175.825 45.808C175.825 45.864 175.807 45.9013 175.769 45.92C175.741 45.9387 175.681 45.948 175.587 45.948C175.233 45.9667 174.943 45.976 174.719 45.976C174.617 45.976 174.579 45.92 174.607 45.808C174.673 45.5373 174.766 45.1127 174.887 44.534C175.037 43.806 175.13 43.372 175.167 43.232ZM180.425 42.938C180.406 42.5833 180.397 41.7013 180.397 40.292V40.25C180.397 40.1847 180.383 40.1427 180.355 40.124C180.327 40.096 180.275 40.082 180.201 40.082C179.771 40.1007 179.417 40.11 179.137 40.11C179.053 40.11 178.997 40.1287 178.969 40.166C178.95 40.2033 178.941 40.2687 178.941 40.362V48.846C178.941 48.9207 178.955 48.9673 178.983 48.986C179.039 49.014 179.188 49.028 179.431 49.028C179.757 49.028 180.005 49.0187 180.173 49C180.313 48.9813 180.383 48.9113 180.383 48.79L180.425 44.688C180.425 44.436 180.523 44.31 180.719 44.31C180.803 44.31 180.91 44.3287 181.041 44.366C181.237 44.4127 181.409 44.5153 181.559 44.674C181.708 44.8233 181.797 45.01 181.825 45.234C181.843 45.4953 181.853 46.228 181.853 47.432C181.862 47.7213 181.867 48.0573 181.867 48.44C181.876 48.692 181.885 48.846 181.895 48.902C181.913 48.958 181.937 48.9907 181.965 49C182.002 49 182.221 49 182.623 49C182.912 49 183.089 48.9953 183.155 48.986C183.173 48.986 183.192 48.972 183.211 48.944C183.229 48.9067 183.239 48.874 183.239 48.846C183.248 48.7713 183.253 48.258 183.253 47.306V45.556C183.281 45.1267 183.215 44.7627 183.057 44.464C182.87 44.1373 182.646 43.8947 182.385 43.736C182.329 43.6987 182.301 43.666 182.301 43.638C182.301 43.6007 182.329 43.568 182.385 43.54C182.618 43.4093 182.795 43.2133 182.917 42.952C183.038 42.6813 183.108 42.4387 183.127 42.224C183.136 42.0933 183.141 41.6873 183.141 41.006V40.516C183.131 40.3387 183.108 40.236 183.071 40.208C183.043 40.1707 182.94 40.152 182.763 40.152H182.147C181.895 40.152 181.764 40.1567 181.755 40.166C181.745 40.1753 181.741 40.2967 181.741 40.53C181.75 40.7633 181.755 40.964 181.755 41.132C181.764 41.3093 181.769 41.5147 181.769 41.748C181.769 42.0373 181.703 42.28 181.573 42.476C181.442 42.6627 181.283 42.798 181.097 42.882C180.919 42.966 180.756 43.008 180.607 43.008C180.485 43.008 180.425 42.9847 180.425 42.938ZM187.861 45.85C187.87 46.3353 187.819 46.7973 187.707 47.236C187.604 47.6653 187.357 47.88 186.965 47.88C186.685 47.88 186.475 47.7727 186.335 47.558C186.204 47.3433 186.139 46.97 186.139 46.438C186.139 44.03 186.143 42.6487 186.153 42.294C186.153 42.0047 186.213 41.72 186.335 41.44C186.465 41.16 186.717 41.02 187.091 41.02C187.324 41.02 187.483 41.132 187.567 41.356C187.651 41.5707 187.702 41.7807 187.721 41.986C187.739 42.182 187.753 42.3033 187.763 42.35C187.791 42.4713 187.823 42.5507 187.861 42.588C187.907 42.616 188.01 42.63 188.169 42.63L188.799 42.616C188.967 42.616 189.065 42.5927 189.093 42.546C189.13 42.49 189.149 42.4107 189.149 42.308C189.149 42.2987 189.149 42.2753 189.149 42.238C189.158 42.1913 189.163 42.1167 189.163 42.014C189.163 41.4447 189.009 40.9127 188.701 40.418C188.402 39.9233 187.809 39.676 186.923 39.676C186.045 39.676 185.457 39.9513 185.159 40.502C184.86 41.0433 184.706 41.6173 184.697 42.224V46.634C184.697 47.25 184.804 47.7587 185.019 48.16C185.243 48.5613 185.532 48.8553 185.887 49.042C186.241 49.238 186.629 49.336 187.049 49.336C187.571 49.336 188.001 49.1773 188.337 48.86C188.673 48.5427 188.915 48.174 189.065 47.754C189.223 47.334 189.303 46.97 189.303 46.662C189.303 46.606 189.303 46.4427 189.303 46.172C189.303 45.9013 189.284 45.6447 189.247 45.402C189.247 45.374 189.228 45.346 189.191 45.318C189.163 45.2807 189.135 45.262 189.107 45.262H188.575C188.323 45.262 188.141 45.2667 188.029 45.276C187.991 45.276 187.954 45.2947 187.917 45.332C187.889 45.3693 187.875 45.402 187.875 45.43C187.865 45.4953 187.861 45.5747 187.861 45.668C187.861 45.752 187.861 45.8127 187.861 45.85ZM192.141 41.594C192.207 41.5847 192.575 41.5707 193.247 41.552C193.919 41.5333 194.395 41.5193 194.675 41.51C194.769 41.51 194.848 41.4773 194.913 41.412C194.988 41.3373 195.021 41.2533 195.011 41.16C195.011 40.9547 195.021 40.8007 195.039 40.698L195.053 40.572C195.053 40.4413 195.011 40.3387 194.927 40.264C194.853 40.1893 194.741 40.152 194.591 40.152L190.881 40.18C190.732 40.18 190.657 40.264 190.657 40.432C190.657 40.5253 190.657 40.796 190.657 41.244C190.667 41.6827 190.671 42.42 190.671 43.456C190.671 46.3867 190.681 48.1133 190.699 48.636C190.709 48.7293 190.741 48.8087 190.797 48.874C190.863 48.9393 190.942 48.972 191.035 48.972H193.779H194.913C194.997 48.9627 195.063 48.93 195.109 48.874C195.165 48.8087 195.193 48.7387 195.193 48.664L195.207 48.034C195.207 47.8287 195.198 47.6887 195.179 47.614C195.161 47.5207 195.128 47.4647 195.081 47.446C195.035 47.4273 194.983 47.418 194.927 47.418C194.871 47.418 194.829 47.418 194.801 47.418H193.303H192.295C192.267 47.418 192.235 47.404 192.197 47.376C192.169 47.348 192.151 47.32 192.141 47.292C192.132 47.236 192.127 46.928 192.127 46.368C192.127 45.696 192.123 45.234 192.113 44.982C192.113 44.87 192.123 44.8 192.141 44.772C192.169 44.7347 192.239 44.7113 192.351 44.702C192.435 44.6927 192.566 44.688 192.743 44.688H193.107C193.191 44.688 193.289 44.6927 193.401 44.702C193.523 44.702 193.658 44.6973 193.807 44.688C194.078 44.6693 194.227 44.5667 194.255 44.38C194.265 44.2493 194.265 44.1327 194.255 44.03C194.255 43.9273 194.255 43.8387 194.255 43.764C194.246 43.624 194.209 43.526 194.143 43.47C194.078 43.4047 193.966 43.372 193.807 43.372L192.197 43.4C192.179 43.4 192.151 43.386 192.113 43.358C192.085 43.33 192.071 43.3067 192.071 43.288L192.029 42.196L192.015 41.734C192.015 41.7153 192.029 41.692 192.057 41.664C192.085 41.6267 192.113 41.6033 192.141 41.594ZM199.359 45.85C199.368 46.3353 199.317 46.7973 199.205 47.236C199.102 47.6653 198.855 47.88 198.463 47.88C198.183 47.88 197.973 47.7727 197.833 47.558C197.702 47.3433 197.637 46.97 197.637 46.438C197.637 44.03 197.641 42.6487 197.651 42.294C197.651 42.0047 197.711 41.72 197.833 41.44C197.963 41.16 198.215 41.02 198.589 41.02C198.822 41.02 198.981 41.132 199.065 41.356C199.149 41.5707 199.2 41.7807 199.219 41.986C199.237 42.182 199.251 42.3033 199.261 42.35C199.289 42.4713 199.321 42.5507 199.359 42.588C199.405 42.616 199.508 42.63 199.667 42.63L200.297 42.616C200.465 42.616 200.563 42.5927 200.591 42.546C200.628 42.49 200.647 42.4107 200.647 42.308C200.647 42.2987 200.647 42.2753 200.647 42.238C200.656 42.1913 200.661 42.1167 200.661 42.014C200.661 41.4447 200.507 40.9127 200.199 40.418C199.9 39.9233 199.307 39.676 198.421 39.676C197.543 39.676 196.955 39.9513 196.657 40.502C196.358 41.0433 196.204 41.6173 196.195 42.224V46.634C196.195 47.25 196.302 47.7587 196.517 48.16C196.741 48.5613 197.03 48.8553 197.385 49.042C197.739 49.238 198.127 49.336 198.547 49.336C199.069 49.336 199.499 49.1773 199.835 48.86C200.171 48.5427 200.413 48.174 200.563 47.754C200.721 47.334 200.801 46.97 200.801 46.662C200.801 46.606 200.801 46.4427 200.801 46.172C200.801 45.9013 200.782 45.6447 200.745 45.402C200.745 45.374 200.726 45.346 200.689 45.318C200.661 45.2807 200.633 45.262 200.605 45.262H200.073C199.821 45.262 199.639 45.2667 199.527 45.276C199.489 45.276 199.452 45.2947 199.415 45.332C199.387 45.3693 199.373 45.402 199.373 45.43C199.363 45.4953 199.359 45.5747 199.359 45.668C199.359 45.752 199.359 45.8127 199.359 45.85ZM205.238 45.85C205.247 46.3353 205.196 46.7973 205.084 47.236C204.981 47.6653 204.734 47.88 204.342 47.88C204.062 47.88 203.852 47.7727 203.712 47.558C203.581 47.3433 203.516 46.97 203.516 46.438C203.516 44.03 203.52 42.6487 203.53 42.294C203.53 42.0047 203.59 41.72 203.712 41.44C203.842 41.16 204.094 41.02 204.468 41.02C204.701 41.02 204.86 41.132 204.944 41.356C205.028 41.5707 205.079 41.7807 205.098 41.986C205.116 42.182 205.13 42.3033 205.14 42.35C205.168 42.4713 205.2 42.5507 205.238 42.588C205.284 42.616 205.387 42.63 205.546 42.63L206.176 42.616C206.344 42.616 206.442 42.5927 206.47 42.546C206.507 42.49 206.526 42.4107 206.526 42.308C206.526 42.2987 206.526 42.2753 206.526 42.238C206.535 42.1913 206.54 42.1167 206.54 42.014C206.54 41.4447 206.386 40.9127 206.078 40.418C205.779 39.9233 205.186 39.676 204.3 39.676C203.422 39.676 202.834 39.9513 202.536 40.502C202.237 41.0433 202.083 41.6173 202.074 42.224V46.634C202.074 47.25 202.181 47.7587 202.396 48.16C202.62 48.5613 202.909 48.8553 203.264 49.042C203.618 49.238 204.006 49.336 204.426 49.336C204.948 49.336 205.378 49.1773 205.714 48.86C206.05 48.5427 206.292 48.174 206.442 47.754C206.6 47.334 206.68 46.97 206.68 46.662C206.68 46.606 206.68 46.4427 206.68 46.172C206.68 45.9013 206.661 45.6447 206.624 45.402C206.624 45.374 206.605 45.346 206.568 45.318C206.54 45.2807 206.512 45.262 206.484 45.262H205.952C205.7 45.262 205.518 45.2667 205.406 45.276C205.368 45.276 205.331 45.2947 205.294 45.332C205.266 45.3693 205.252 45.402 205.252 45.43C205.242 45.4953 205.238 45.5747 205.238 45.668C205.238 45.752 205.238 45.8127 205.238 45.85ZM210.294 42.966C210.257 42.966 209.813 42.2333 208.964 40.768L208.656 40.222C208.572 40.0913 208.488 40.026 208.404 40.026C208.376 40.026 208.325 40.0447 208.25 40.082L207.606 40.502C207.522 40.558 207.457 40.6093 207.41 40.656C207.363 40.6933 207.34 40.7307 207.34 40.768C207.34 40.824 207.382 40.922 207.466 41.062L207.928 41.832C208.843 43.3813 209.393 44.3053 209.58 44.604L208.264 48.384C208.255 48.412 208.25 48.454 208.25 48.51C208.25 48.6873 208.306 48.79 208.418 48.818C208.53 48.846 208.749 48.8927 209.076 48.958L209.44 49.028C209.524 49.028 209.58 49.0047 209.608 48.958C209.701 48.8273 209.767 48.692 209.804 48.552C209.963 48.104 210.499 46.6993 211.414 44.338C212.329 41.9673 212.823 40.698 212.898 40.53C212.917 40.4927 212.926 40.4647 212.926 40.446C212.926 40.39 212.884 40.3573 212.8 40.348L211.778 40.124C211.75 40.1147 211.713 40.11 211.666 40.11C211.535 40.11 211.433 40.1847 211.358 40.334C211.255 40.5767 211.125 40.9127 210.966 41.342C210.91 41.482 210.789 41.79 210.602 42.266C210.425 42.7327 210.322 42.966 210.294 42.966ZM218.564 42.882C218.564 42.49 218.555 42.224 218.536 42.084C218.48 41.552 218.247 41.1087 217.836 40.754C217.426 40.39 216.95 40.1893 216.408 40.152C215.923 40.1147 215.428 40.096 214.924 40.096C214.439 40.096 214.112 40.1193 213.944 40.166C213.879 40.1753 213.832 40.1987 213.804 40.236C213.786 40.264 213.776 40.3107 213.776 40.376C213.786 40.544 213.79 41.8787 213.79 44.38L213.804 48.622C213.804 48.846 213.93 48.9673 214.182 48.986L214.658 48.972C214.761 48.972 214.836 48.9767 214.882 48.986L214.994 49C215.209 49 215.316 48.8787 215.316 48.636C215.307 48.4027 215.302 48.202 215.302 48.034C215.312 47.8567 215.316 47.712 215.316 47.6C215.326 47.4507 215.33 47.222 215.33 46.914C215.33 46.6433 215.326 46.438 215.316 46.298C215.316 46.214 215.326 46.158 215.344 46.13C215.372 46.102 215.428 46.0833 215.512 46.074C215.596 46.0647 215.797 46.0507 216.114 46.032C216.432 46.004 216.674 45.9573 216.842 45.892C217.374 45.6773 217.794 45.3367 218.102 44.87C218.41 44.4033 218.564 43.9087 218.564 43.386V42.882ZM215.316 44.324C215.316 43.1013 215.307 42.2753 215.288 41.846C215.288 41.6967 215.358 41.622 215.498 41.622C215.526 41.622 215.624 41.622 215.792 41.622C215.96 41.622 216.114 41.6313 216.254 41.65C216.488 41.6873 216.698 41.8227 216.884 42.056C217.08 42.2893 217.183 42.5133 217.192 42.728C217.192 42.9987 217.174 43.2367 217.136 43.442C217.108 43.638 217.038 43.8247 216.926 44.002C216.721 44.338 216.357 44.506 215.834 44.506C215.666 44.506 215.526 44.492 215.414 44.464C215.396 44.4547 215.372 44.436 215.344 44.408C215.326 44.38 215.316 44.352 215.316 44.324ZM219.502 42.098C219.484 42.21 219.474 42.4947 219.474 42.952C219.474 43.232 219.488 44.17 219.516 45.766L219.53 46.578C219.53 47.2033 219.67 47.824 219.95 48.44C220.23 49.056 220.888 49.364 221.924 49.364C222.466 49.364 222.918 49.2147 223.282 48.916C223.646 48.6173 223.917 48.272 224.094 47.88C224.272 47.488 224.36 47.1613 224.36 46.9C224.36 46.2747 224.356 45.4673 224.346 44.478C224.346 43.4887 224.342 42.6813 224.332 42.056C224.332 41.7947 224.272 41.4913 224.15 41.146C224.029 40.7913 223.805 40.474 223.478 40.194C223.161 39.9047 222.722 39.76 222.162 39.76C221.49 39.76 220.968 39.8953 220.594 40.166C220.23 40.4273 219.983 40.7073 219.852 41.006C219.722 41.3047 219.605 41.6687 219.502 42.098ZM222.82 42.42C222.83 42.448 222.834 42.6953 222.834 43.162C222.834 43.8433 222.825 44.5947 222.806 45.416C222.797 46.228 222.778 46.7413 222.75 46.956C222.732 47.1427 222.634 47.306 222.456 47.446C222.279 47.5767 222.092 47.642 221.896 47.642C221.831 47.642 221.784 47.6373 221.756 47.628C221.486 47.572 221.29 47.474 221.168 47.334C221.056 47.194 221 46.984 221 46.704V46.074V44.296C221 43.1387 221.01 42.4993 221.028 42.378C221.056 42.126 221.136 41.8833 221.266 41.65C221.332 41.5193 221.42 41.4213 221.532 41.356C221.654 41.2813 221.784 41.244 221.924 41.244C222.148 41.244 222.344 41.342 222.512 41.538C222.615 41.6593 222.685 41.79 222.722 41.93C222.769 42.07 222.802 42.2333 222.82 42.42ZM225.768 40.026C225.749 40.194 225.74 41.1087 225.74 42.77C225.74 44.1233 225.744 45.3787 225.754 46.536C225.763 47.6933 225.772 48.4773 225.782 48.888C225.782 48.8973 225.8 48.9393 225.838 49.014C225.875 49.098 225.917 49.1493 225.964 49.168C226.038 49.1867 226.192 49.196 226.426 49.196C226.752 49.196 227.154 49.182 227.63 49.154C228.106 49.1353 228.465 49.1167 228.708 49.098C229.146 49.0513 229.492 48.9113 229.744 48.678C229.986 48.454 230.173 48.1973 230.304 47.908C230.434 47.6187 230.5 47.3153 230.5 46.998C230.509 46.3353 230.486 45.6307 230.43 44.884C230.42 44.604 230.336 44.3147 230.178 44.016C230.028 43.708 229.874 43.4933 229.716 43.372C229.585 43.2787 229.52 43.2133 229.52 43.176C229.52 43.1573 229.538 43.134 229.576 43.106C229.613 43.0687 229.636 43.036 229.646 43.008C229.748 42.7933 229.809 42.6393 229.828 42.546C229.856 42.4153 229.87 42.2287 229.87 41.986C229.87 41.286 229.683 40.7587 229.31 40.404C229.142 40.2173 228.946 40.0867 228.722 40.012C228.507 39.9373 228.255 39.9 227.966 39.9L226.608 39.886C226.3 39.886 226.071 39.8907 225.922 39.9C225.884 39.9093 225.847 39.928 225.81 39.956C225.782 39.984 225.768 40.0073 225.768 40.026ZM227.56 41.244C227.616 41.2533 227.69 41.258 227.784 41.258C227.877 41.258 227.956 41.272 228.022 41.3C228.096 41.3187 228.157 41.3653 228.204 41.44C228.344 41.636 228.414 41.8413 228.414 42.056C228.414 42.4107 228.204 42.6393 227.784 42.742C227.718 42.7607 227.63 42.77 227.518 42.77C227.406 42.77 227.317 42.77 227.252 42.77H227.21C227.107 42.77 227.056 42.714 227.056 42.602C227.046 42.4433 227.042 42.21 227.042 41.902C227.032 41.7993 227.028 41.6453 227.028 41.44C227.028 41.412 227.042 41.384 227.07 41.356C227.098 41.3187 227.126 41.2953 227.154 41.286C227.182 41.2767 227.317 41.2627 227.56 41.244ZM228.75 44.674C228.964 44.982 229.072 45.4067 229.072 45.948C229.072 46.34 229.025 46.7227 228.932 47.096C228.885 47.2733 228.792 47.4273 228.652 47.558C228.512 47.6887 228.353 47.7633 228.176 47.782H227.756C227.709 47.782 227.648 47.782 227.574 47.782C227.508 47.7727 227.429 47.7727 227.336 47.782H227.294C227.228 47.782 227.182 47.768 227.154 47.74C227.135 47.712 227.126 47.6607 227.126 47.586C227.135 47.0913 227.14 46.3447 227.14 45.346L227.098 44.394C227.098 44.2633 227.158 44.198 227.28 44.198C227.345 44.198 227.457 44.1933 227.616 44.184C227.774 44.1653 227.914 44.1607 228.036 44.17C228.334 44.198 228.572 44.366 228.75 44.674Z" fill="white"/>
</svg>
