<svg width="229" height="35" viewBox="0 0 229 35" fill="none" xmlns="http://www.w3.org/2000/svg">
<path d="M0 0.122306H8.9451L9.01185 14.5961C10.6807 14.5291 11.5485 13.591 11.6153 11.7817L11.8155 5.08091C11.8823 2.60161 12.3496 0.926404 13.2841 0.0552979H21.4949C20.6939 0.859396 20.2934 2.60161 20.2934 5.21493L20.3601 11.1117C20.3601 14.6631 18.3575 16.6733 14.3522 17.2094C18.3575 17.6785 20.3601 19.7557 20.3601 23.3742L20.1599 28.9358C20.1599 31.5492 20.5604 33.3584 21.3614 34.4975H13.1506C12.2161 33.6264 11.682 31.9512 11.682 29.4719V22.7711C11.682 21.9 11.415 21.2299 10.881 20.6938C10.3469 20.1578 9.6794 19.8897 8.87835 19.8897L8.81159 34.4305H0V0.122306Z" fill="white"/>
<path d="M38.5841 0.122986L43.6574 34.4312H34.5788L34.1116 28.2664H30.9073L30.3733 34.4312H21.1612L25.7005 0.122986H38.5841ZM33.8445 22.2357C33.3773 18.3492 32.91 13.5246 32.5095 7.82893C31.5749 14.3957 31.0409 19.2203 30.7738 22.2357H33.8445Z" fill="white"/>
<path d="M66.888 34.4982H57.9429V7.02483H55.3395V26.4572C55.3395 29.0035 55.0057 30.8797 54.3381 31.9519C53.6706 33.091 52.6693 33.7611 51.3342 34.0291C49.9991 34.2972 47.863 34.4312 44.9258 34.4312H43.5239V28.5345C44.592 28.5345 45.3263 28.4004 45.7936 28.1324C46.1941 27.8644 46.3944 26.9263 46.3944 25.3851V0.122986H66.8212V34.4982H66.888Z" fill="white"/>
<path d="M91.1198 26.4572C91.1198 29.0035 90.7861 30.8797 90.1185 31.9519C89.451 33.091 88.4497 33.7611 87.1146 34.0291C85.7795 34.2972 83.6434 34.4312 80.7062 34.4312H70.426V0.122986H79.3043V11.9164H80.7062C83.4431 11.9164 85.5125 12.0504 86.9143 12.3855C88.3162 12.7205 89.3842 13.4576 90.0518 14.5297C90.7193 15.6689 91.1198 17.4111 91.1198 19.7564V26.4572ZM82.2415 25.3851V20.4265C82.2415 18.9523 82.108 18.0812 81.841 17.8131C81.574 17.4781 80.7062 17.3441 79.3711 17.2771V28.5345C80.5059 28.5345 81.2402 28.4004 81.6407 28.1324C82.0412 27.8644 82.2415 26.9263 82.2415 25.3851Z" fill="white"/>
<path d="M121.76 0.122986V34.4312H114.017V11.2463L110.946 34.4312H105.339L102.068 11.7824V34.4312H94.3241V0.122986H105.806C106.14 2.20024 106.473 4.61253 106.874 7.42688L108.142 16.1379L110.145 0.122986H121.76Z" fill="white"/>
<path d="M140.652 0.122986L145.725 34.4312H136.713L136.246 28.2664H133.042L132.508 34.4312H123.295L127.835 0.122986H140.652ZM135.979 22.2357C135.512 18.3492 135.044 13.5246 134.644 7.82893C133.709 14.3957 133.175 19.2203 132.908 22.2357H135.979Z" fill="white"/>
<path d="M147.26 0.122986H156.205C158.609 0.122986 160.478 0.32401 161.813 0.72606C163.148 1.12811 164.082 1.66417 164.75 2.40126C165.418 3.13835 165.818 4.00946 166.085 5.01458C166.285 6.01971 166.419 7.6279 166.419 9.77217V12.7875C166.419 14.9988 166.219 16.607 165.751 17.6121C165.284 18.6172 164.483 19.3543 163.281 19.8904C162.08 20.4265 160.478 20.6945 158.542 20.6945H156.139V34.4982H147.26V0.122986ZM156.205 6.01971V14.7308C156.472 14.7308 156.673 14.7308 156.873 14.7308C157.674 14.7308 158.275 14.5297 158.542 14.1277C158.876 13.7256 159.009 12.8545 159.009 11.5814V8.83405C159.009 7.6279 158.809 6.89081 158.475 6.55577C158.075 6.22073 157.34 6.01971 156.205 6.01971Z" fill="white"/>
<path d="M169.022 0.122306H177.967L178.034 14.5961C179.703 14.5291 180.571 13.591 180.638 11.7817L180.838 5.08091C180.905 2.60161 181.372 0.926404 182.306 0.0552979H190.517C189.716 0.859396 189.316 2.60161 189.316 5.21493L189.382 11.1116C189.382 14.6631 187.38 16.6733 183.375 17.2094C187.38 17.6785 189.382 19.7557 189.382 23.3741L189.316 28.8688C189.316 31.4821 189.716 33.2914 190.517 34.4305H182.306C181.372 33.5594 180.838 31.8842 180.838 29.4049V22.7041C180.838 21.833 180.571 21.1629 180.037 20.6268C179.503 20.0907 178.835 19.8227 178.034 19.8227L177.967 34.3635H169.022V0.122306Z" fill="white"/>
<path d="M192.186 0.122986H207.006V7.02483H201.064V13.5246H206.605V20.0244H201.064V27.5963H207.606V34.4982H192.186V0.122986Z" fill="white"/>
<path d="M228.1 0.122986V7.02483H222.826V34.4982H213.948V7.02483H208.674V0.122986H228.1Z" fill="white"/>
</svg>
