<svg width="25" height="25" viewBox="0 0 25 25" fill="none" xmlns="http://www.w3.org/2000/svg">
<path d="M17.4441 14.6387C17.1762 14.5053 15.857 13.8591 15.6097 13.7668L17.4441 14.6387ZM17.4441 14.6387C17.4971 14.665 17.5466 14.6888 17.5925 14.7108C17.779 14.8002 17.9057 14.861 17.9594 14.9516M17.4441 14.6387L17.9594 14.9516M10.3149 7.72487L10.3152 7.72554C10.4519 8.02998 10.6783 8.5814 10.859 9.02161L10.8624 9.02974C10.9337 9.20347 10.9981 9.36021 11.0483 9.48084C11.0734 9.54121 11.0944 9.59118 11.1107 9.62902C11.1259 9.66448 11.1333 9.68078 11.1351 9.68472C11.1354 9.68538 11.1355 9.6857 11.1355 9.6857C11.2384 9.89043 11.3422 10.2197 11.1587 10.5958L10.3149 7.72487ZM10.3149 7.72487C10.1902 7.44789 10.0293 7.23178 9.80445 7.10142C9.58939 6.97676 9.37837 6.9715 9.28012 6.96905C9.27696 6.96897 9.27393 6.9689 9.27101 6.96882C9.10854 6.9635 8.9221 6.9635 8.74614 6.9635H8.74086C8.44606 6.9635 8.01549 7.07136 7.65801 7.45683C7.64529 7.47054 7.6308 7.48586 7.61271 7.50498C7.30748 7.82757 6.58672 8.59306 6.58672 10.028C6.58672 10.7879 6.85898 11.5073 7.12901 12.041C7.40242 12.5813 7.69581 12.9739 7.77802 13.0838L7.77807 13.0839L10.3149 7.72487ZM18.3894 14.6965C18.3009 14.5472 18.1738 14.4575 18.0864 14.4041C18.0026 14.3529 17.904 14.3056 17.8211 14.2659L17.8087 14.26L17.8087 14.26C17.7625 14.2378 17.7161 14.2156 17.6669 14.1911L17.6669 14.191C17.5307 14.1233 17.1319 13.9274 16.7361 13.7368C16.3546 13.5532 15.9356 13.3547 15.7846 13.2984L15.7845 13.2984L15.7807 13.2969C15.6669 13.2545 15.4541 13.175 15.2227 13.2023C14.9364 13.2361 14.7324 13.4087 14.5912 13.6222C14.441 13.8433 14.0086 14.3514 13.8166 14.5749C13.8105 14.5721 13.804 14.569 13.797 14.5655C13.741 14.5376 13.6708 14.5073 13.6054 14.4791L13.5961 14.4751L13.398 14.9342L13.5961 14.4751L13.595 14.4746C13.2346 14.3191 12.5461 14.0221 11.7477 13.3113L11.7469 13.3105C11.0612 12.7029 10.5734 11.9509 10.3906 11.6455C10.391 11.6451 10.3915 11.6446 10.392 11.6441L10.3922 11.6439C10.4851 11.5514 10.5862 11.4292 10.6679 11.3305L10.6769 11.3195C10.7282 11.2575 10.7747 11.2014 10.8183 11.1513L10.8184 11.1512C10.9809 10.9646 11.0552 10.8104 11.1263 10.6627L11.1302 10.6546L11.1302 10.6546L11.1586 10.5959L12.7704 16.8287M18.3894 14.6965L17.9594 14.9516M18.3894 14.6965C18.3894 14.6964 18.3894 14.6964 18.3893 14.6963L17.9594 14.9516M18.3894 14.6965C18.4697 14.8317 18.4867 14.9884 18.4931 15.0707C18.5017 15.1796 18.4999 15.3046 18.4885 15.4379C18.4656 15.7055 18.4013 16.037 18.2762 16.3904L18.275 16.3938C18.1036 16.8668 17.6551 17.2486 17.2692 17.4972C16.8767 17.75 16.4002 17.9594 16.0374 17.9933L15.991 17.4954L16.0379 17.9932C15.9988 17.9969 15.9587 18.0017 15.9096 18.0077C15.6607 18.0378 15.35 18.0742 14.8262 17.9863C14.3208 17.9016 13.628 17.7036 12.5873 17.294M12.5873 17.294C12.5873 17.294 12.5874 17.294 12.5874 17.294L12.7704 16.8287M12.5873 17.294L12.7704 16.8287M12.5873 17.294C9.91614 16.2435 8.17791 13.6738 7.83061 13.1604L7.82494 13.152L7.79291 13.1048L7.78408 13.0921C7.78342 13.0911 7.78296 13.0905 7.78269 13.0901L7.77811 13.084L8.17862 12.7846L8.18432 12.7923M12.7704 16.8287C10.244 15.8352 8.57624 13.3702 8.23907 12.8719C8.21245 12.8325 8.19412 12.8054 8.18432 12.7923M8.18432 12.7923L7.78355 13.0913L7.78377 13.0916L8.18432 12.7923ZM7.81959 21.0408C7.70809 20.9804 7.57779 20.9647 7.45509 20.9967L2.79555 22.2138L4.03907 17.7C4.07468 17.5707 4.05689 17.4326 3.9897 17.3166C3.12504 15.8237 2.67028 14.1308 2.6709 12.4079V12.4077C2.6709 6.99316 7.10296 2.58334 12.5437 2.58334C15.189 2.58334 17.6644 3.60806 19.5288 5.46366C21.3925 7.31875 22.4166 9.78642 22.4166 12.4128C22.4166 17.8272 17.9846 22.237 12.5438 22.237H12.5386C10.8856 22.237 9.26175 21.822 7.81959 21.0408ZM2.65578 22.2503C2.65582 22.2503 2.65586 22.2503 2.65589 22.2503L2.65578 22.2503Z" fill="white" stroke="white" stroke-linejoin="round"/>
</svg>
