<svg width="25" height="25" viewBox="0 0 25 25" fill="none" xmlns="http://www.w3.org/2000/svg">
<path d="M22.3994 19.1468H20.0229C19.1237 19.1468 18.8533 18.4187 17.2407 16.8061C15.8333 15.4492 15.2388 15.2798 14.882 15.2798C14.3901 15.2798 14.2549 15.415 14.2549 16.0943V18.2314C14.2549 18.8097 14.0676 19.1485 12.5576 19.1485C11.0921 19.05 9.67106 18.6048 8.41139 17.8495C7.15171 17.0942 6.0895 16.0504 5.31224 14.8042C3.46696 12.5074 2.18302 9.81181 1.5625 6.93169C1.5625 6.57496 1.6977 6.25244 2.37695 6.25244H4.75189C5.36273 6.25244 5.58263 6.52447 5.82208 7.15159C6.97535 10.5462 8.94306 13.4978 9.74122 13.4978C10.0475 13.4978 10.181 13.3626 10.181 12.5986V9.10302C10.08 7.50832 9.23301 7.37312 9.23301 6.79649C9.24389 6.6444 9.31358 6.50253 9.42732 6.40096C9.54105 6.29939 9.68987 6.24612 9.84222 6.25244H13.5757C14.0855 6.25244 14.2549 6.50655 14.2549 7.11739V11.8347C14.2549 12.3445 14.4748 12.5139 14.6279 12.5139C14.9342 12.5139 15.1704 12.3445 15.7307 11.7842C16.9342 10.3165 17.9176 8.68126 18.6497 6.93006C18.7245 6.71971 18.8661 6.53962 19.0529 6.41727C19.2397 6.29492 19.4613 6.23703 19.6841 6.25244H22.0606C22.7725 6.25244 22.9239 6.60917 22.7725 7.11739C21.9083 9.05322 20.8391 10.8908 19.5831 12.5986C19.3273 12.9896 19.2247 13.1932 19.5831 13.6509C19.8193 14.0076 20.6516 14.7032 21.212 15.3645C22.0263 16.1768 22.7025 17.1165 23.2139 18.1467C23.4175 18.808 23.0771 19.1468 22.3994 19.1468Z" fill="white"/>
</svg>
