<svg width="25" height="25" viewBox="0 0 25 25" fill="none" xmlns="http://www.w3.org/2000/svg">
<path d="M12.5 9.11458C10.6303 9.11458 9.11459 10.6303 9.11459 12.5C9.11459 14.3697 10.6303 15.8854 12.5 15.8854C14.3697 15.8854 15.8854 14.3697 15.8854 12.5C15.8854 10.6303 14.3697 9.11458 12.5 9.11458Z" fill="white"/>
<path fill-rule="evenodd" clip-rule="evenodd" d="M7.05161 3.20986C10.6434 2.80842 14.3566 2.80842 17.9484 3.20986C19.9259 3.43087 21.5209 4.98898 21.753 6.97341C22.1825 10.6453 22.1825 14.3547 21.753 18.0266C21.5209 20.011 19.9259 21.5691 17.9484 21.7901C14.3566 22.1916 10.6434 22.1916 7.05161 21.7901C5.07411 21.5691 3.47912 20.011 3.24702 18.0266C2.81756 14.3547 2.81756 10.6453 3.24702 6.97341C3.47912 4.98898 5.07411 3.43087 7.05161 3.20986ZM17.7083 6.25C17.133 6.25 16.6667 6.71637 16.6667 7.29166C16.6667 7.86696 17.133 8.33333 17.7083 8.33333C18.2836 8.33333 18.75 7.86696 18.75 7.29166C18.75 6.71637 18.2836 6.25 17.7083 6.25ZM7.55209 12.5C7.55209 9.76734 9.76735 7.55208 12.5 7.55208C15.2327 7.55208 17.4479 9.76734 17.4479 12.5C17.4479 15.2327 15.2327 17.4479 12.5 17.4479C9.76735 17.4479 7.55209 15.2327 7.55209 12.5Z" fill="white"/>
</svg>
